<svg id="visual" viewBox="0 0 900 600" width="900" height="600" xmlns="http://www.w3.org/2000/svg" xmlns:xlink="http://www.w3.org/1999/xlink" version="1.1"><rect x="0" y="0" width="900" height="600" fill="#FFFFFF"></rect><path d="M0 414L21.5 413.2C43 412.3 86 410.7 128.8 410C171.7 409.3 214.3 409.7 257.2 419.3C300 429 343 448 385.8 452.3C428.7 456.7 471.3 446.3 514.2 434.8C557 423.3 600 410.7 642.8 417.3C685.7 424 728.3 450 771.2 468C814 486 857 496 878.5 501L900 506L900 601L878.5 601C857 601 814 601 771.2 601C728.3 601 685.7 601 642.8 601C600 601 557 601 514.2 601C471.3 601 428.7 601 385.8 601C343 601 300 601 257.2 601C214.3 601 171.7 601 128.8 601C86 601 43 601 21.5 601L0 601Z" fill="#035f37" stroke-linecap="round" stroke-linejoin="miter"></path></svg>